<svg xmlns="http://www.w3.org/2000/svg" xmlns:svg="http://www.w3.org/2000/svg" xmlns:xlink="http://www.w3.org/1999/xlink" id="svg2108" width="16" height="16" version="1.1"><defs id="defs3"><linearGradient id="linearGradient4562"><stop style="stop-color:#fff;stop-opacity:1" id="stop4564" offset="0"/><stop style="stop-color:#d6d6d2;stop-opacity:1" id="stop4566" offset="1"/></linearGradient><linearGradient id="linearGradient4356"><stop style="stop-color:#000;stop-opacity:1" id="stop4358" offset="0"/><stop style="stop-color:#000;stop-opacity:0" id="stop4360" offset="1"/></linearGradient><linearGradient id="linearGradient3824"><stop style="stop-color:#fff;stop-opacity:1" id="stop3826" offset="0"/><stop style="stop-color:#c9c9c9;stop-opacity:1" id="stop3828" offset="1"/></linearGradient><linearGradient id="linearGradient3816"><stop style="stop-color:#000;stop-opacity:1" id="stop3818" offset="0"/><stop style="stop-color:#000;stop-opacity:0" id="stop3820" offset="1"/></linearGradient><radialGradient id="radialGradient3822" cx="31.113" cy="19.009" r="8.662" fx="31.113" fy="19.009" gradientUnits="userSpaceOnUse" xlink:href="#linearGradient3816"/><linearGradient id="linearGradient4362" x1="20.662" x2="22.627" y1="35.818" y2="36.218" gradientTransform="matrix(0.4299663,0.07939659,-0.07939659,0.4299663,-2.2241832,25.844864)" gradientUnits="userSpaceOnUse" xlink:href="#linearGradient4356"/><linearGradient id="linearGradient4366" x1="22.687" x2="21.408" y1="36.39" y2="35.74" gradientTransform="matrix(-0.42747849,0.09185225,0.09185225,0.42747849,17.589309,25.651912)" gradientUnits="userSpaceOnUse" xlink:href="#linearGradient4356"/><linearGradient id="linearGradient1366" x1="22.687" x2="21.408" y1="36.39" y2="35.74" gradientTransform="matrix(-0.42747849,0.09185225,0.09185225,0.42747849,12.635172,23.767089)" gradientUnits="userSpaceOnUse" xlink:href="#linearGradient4356"/><linearGradient id="linearGradient1372" x1="30.936" x2="30.936" y1="29.553" y2="35.803" gradientTransform="matrix(0.43723529,0,0,0.43723529,-11.073329,25.567913)" gradientUnits="userSpaceOnUse" xlink:href="#linearGradient3824"/><radialGradient id="radialGradient4568" cx="24.754" cy="26.814" r="17.986" fx="24.754" fy="26.814" gradientTransform="matrix(0.442517,0,0,0.44639751,-3.058883,29.105609)" gradientUnits="userSpaceOnUse" xlink:href="#linearGradient4562"/><radialGradient id="radialGradient3816" cx="29.922" cy="17.728" r="17.986" fx="29.922" fy="17.728" gradientTransform="matrix(0.558489,0,-1.377346e-8,0.563387,14.87134,4.364123)" gradientUnits="userSpaceOnUse" xlink:href="#linearGradient4562"/><filter id="filter5655" width="1.152" height="1.567" x="-.076" y="-.283" color-interpolation-filters="sRGB"><feGaussianBlur id="feGaussianBlur5657" stdDeviation="1.453"/></filter></defs><metadata id="metadata4"/><g id="layer1" transform="translate(0,-32)" style="display:inline"><path style="color:#000;fill:url(#linearGradient1372);fill-opacity:1;fill-rule:evenodd;stroke:none;stroke-width:1px;marker:none;visibility:visible;display:inline;overflow:visible" id="path4173" d="m 4.2306913,40.449062 1.8550322,0 -1.0821017,-1.00481 -0.2318793,0.309172 -0.2318793,-0.231878 -0.3091719,0.927516 z"/><path id="path4370" d="M 6.3599261,42.94513 C 6.8982722,42.691107 7.148864,42.069645 7.148864,42.069645 6.7295031,40.30191 5.4103517,39.077722 5.4103517,39.077722 c 0,0 1.0776072,2.77321 0.9495744,3.867408 z" style="opacity:.22784807;color:#000;fill:url(#linearGradient1366);fill-opacity:1;fill-rule:evenodd;stroke:none;stroke-width:1px;marker:none;visibility:visible;display:inline;overflow:visible"/></g><g id="layer2" transform="translate(0,-32)" style="display:inline"><rect style="opacity:.34857142;color:#000;fill:#000;fill-opacity:1;fill-rule:nonzero;stroke:none;stroke-width:.30000001;marker:none;visibility:visible;display:block;overflow:visible;filter:url(#filter5655);enable-background:accumulate" id="rect4608" width="38.184" height="10.253" x="5.303" y="35.449" rx="5.127" ry="5.127" transform="matrix(0.30552246,0,0,0.30552246,0.38079273,33.07423)"/><path style="color:#000;fill:url(#radialGradient4568);fill-opacity:1;fill-rule:evenodd;stroke:#888a85;stroke-width:1;stroke-linecap:round;stroke-linejoin:round;stroke-miterlimit:4;stroke-opacity:1;stroke-dasharray:none;stroke-dashoffset:0;marker:none;visibility:visible;display:inline;overflow:visible" id="path4308" d="m 5.7182874,46.547445 4.6375806,0 c 1.313982,0 2.61488,-0.481802 3.09172,-1.855032 0.452818,-1.304043 0.0773,-3.787357 -2.859841,-5.796975 l -5.4878038,0 c -2.9371344,1.855033 -3.3041833,4.391955 -2.6279623,5.874269 0.6889059,1.510119 1.8550321,1.777738 3.2463065,1.777738 z"/><path id="path4364" d="m 11.314065,44.829956 c 0.538346,-0.254024 0.788939,-0.875486 0.788939,-0.875486 -0.419361,-1.767736 -1.738514,-2.991924 -1.738514,-2.991924 0,0 1.077607,2.77321 0.949575,3.86741 z" style="opacity:.29120878;color:#000;fill:url(#linearGradient4366);fill-opacity:1;fill-rule:evenodd;stroke:none;stroke-width:1px;marker:none;visibility:visible;display:inline;overflow:visible"/><path style="opacity:.54945056;color:#000;fill:url(#linearGradient4362);fill-opacity:1;fill-rule:evenodd;stroke:none;stroke-width:1px;marker:none;visibility:visible;display:inline;overflow:visible" id="path4354" d="M 4.6054637,44.832539 C 4.0599659,44.594258 3.815819,44.020033 3.815819,44.020033 c 0.367838,-1.77917 1.626483,-3.080854 1.626483,-3.080854 0,0 -0.9965998,2.803341 -0.8368383,3.89336 z"/><path id="path4314" d="m 6.0029522,45.597506 3.9247143,-0.0083 c 0.9872985,0 2.3272495,-0.127275 2.6511785,-1.237584 0.323929,-1.110312 -0.424886,-3.492639 -2.570454,-4.511977 L 5.697963,39.7488 c -2.2467578,1.314118 -2.8685733,3.424728 -2.3520632,4.629714 0.5165101,1.204986 1.5042374,1.210755 2.6570524,1.219019 l 0,-2.7e-5 z" style="opacity:.64285715;color:#000;fill:none;stroke:#fff;stroke-width:.90813291;stroke-linecap:round;stroke-linejoin:round;stroke-miterlimit:4;stroke-opacity:1;stroke-dasharray:none;stroke-dashoffset:0;marker:none;visibility:visible;display:inline;overflow:visible"/><path id="path4318" d="m 39.774755,19.008621 a 8.6620579,8.6620579 0 1 1 -17.324115,0 8.6620579,8.6620579 0 1 1 17.324115,0 z" transform="matrix(0.43723529,0,0,0.43723529,-5.6984391,29.873025)" style="color:#000;fill:url(#radialGradient3822);fill-opacity:1;fill-rule:evenodd;stroke:none;stroke-width:1px;marker:none;visibility:visible;display:inline;overflow:visible"/><path style="color:#000;fill:url(#radialGradient3816);fill-opacity:1;fill-rule:evenodd;stroke:#888a85;stroke-width:2.2870981;stroke-linecap:round;stroke-linejoin:round;stroke-miterlimit:4;stroke-opacity:1;stroke-dasharray:none;stroke-dashoffset:0;marker:none;visibility:visible;display:inline;overflow:visible" id="path4320" d="m 39.774755,19.008621 a 8.6620579,8.6620579 0 1 1 -17.324115,0 8.6620579,8.6620579 0 1 1 17.324115,0 z" transform="matrix(0.43723529,0,0,0.43723529,-5.6437858,28.342699)"/><path id="path4322" d="m 39.414091,19.008621 a 8.3013935,8.1210604 0 1 1 -16.602787,0 8.3013935,8.1210604 0 1 1 16.602787,0 z" transform="matrix(0.34658216,0,0,0.34658216,-2.8233135,30.065895)" style="opacity:.19620254;color:#000;fill:none;stroke:#fff;stroke-width:2.5190351;stroke-linecap:round;stroke-linejoin:round;stroke-miterlimit:4;stroke-opacity:1;stroke-dasharray:none;stroke-dashoffset:0;marker:none;visibility:visible;display:inline;overflow:visible"/></g></svg>