<svg xmlns="http://www.w3.org/2000/svg" xmlns:svg="http://www.w3.org/2000/svg" xmlns:xlink="http://www.w3.org/1999/xlink" id="svg1328" width="16" height="16" version="1.1"><defs id="defs1330"><linearGradient id="linearGradient2804"><stop style="stop-color:black;stop-opacity:0" id="stop2806" offset="0"/><stop id="stop2812" offset=".5" style="stop-color:black;stop-opacity:1"/><stop style="stop-color:black;stop-opacity:0" id="stop2808" offset="1"/></linearGradient><linearGradient id="linearGradient2781"><stop style="stop-color:black;stop-opacity:1" id="stop2783" offset="0"/><stop style="stop-color:black;stop-opacity:0" id="stop2785" offset="1"/></linearGradient><linearGradient id="linearGradient2782"><stop style="stop-color:white;stop-opacity:1" id="stop2784" offset="0"/><stop style="stop-color:white;stop-opacity:0" id="stop2786" offset="1"/></linearGradient><linearGradient id="linearGradient5106"><stop style="stop-color:#729fcf;stop-opacity:1" id="stop5108" offset="0"/><stop style="stop-color:#386ea6;stop-opacity:1" id="stop5110" offset="1"/></linearGradient><linearGradient id="linearGradient2780" x1="8.177" x2="8.177" y1="5.858" y2="15.677" gradientTransform="matrix(0.89976686,0,0,0.91323462,0.770616,31.810865)" gradientUnits="userSpaceOnUse" xlink:href="#linearGradient5106"/><linearGradient id="linearGradient2788" x1="26.063" x2="29.031" y1="23.266" y2="55.266" gradientTransform="matrix(0.28680891,0,0,0.28680891,1.2712629,33.483916)" gradientUnits="userSpaceOnUse" xlink:href="#linearGradient2782"/><radialGradient id="radialGradient2827" cx="1" cy="44" r="5" fx="1" fy="44" gradientTransform="matrix(2,0,0,0.8,-13,-79.2)" gradientUnits="userSpaceOnUse" xlink:href="#linearGradient2781"/><radialGradient id="radialGradient2829" cx="1" cy="44" r="5" fx="1" fy="44" gradientTransform="matrix(2,0,0,0.8,36,8.8)" gradientUnits="userSpaceOnUse" xlink:href="#linearGradient2781"/><linearGradient id="linearGradient2831" x1="21.875" x2="21.875" y1="48.001" y2="40" gradientUnits="userSpaceOnUse" xlink:href="#linearGradient2804"/></defs><metadata id="metadata1333"/><g id="layer1" transform="translate(0,-32)"><g id="g2822" transform="matrix(0.28680892,0,0,0.29753472,1.2314267,32.732228)" style="opacity:.3"><rect id="rect1892" width="10" height="8" x="-11" y="-48" transform="scale(-1,-1)" style="color:#000;fill:url(#radialGradient2827);fill-opacity:1;fill-rule:nonzero;stroke:none;stroke-width:1;marker:none;visibility:visible;display:inline;overflow:visible"/><rect id="rect2789" width="10" height="8" x="38" y="40" style="color:#000;fill:url(#radialGradient2829);fill-opacity:1;fill-rule:nonzero;stroke:none;stroke-width:1;marker:none;visibility:visible;display:inline;overflow:visible"/><rect id="rect2793" width="27" height="8" x="11" y="40" style="color:#000;fill:url(#linearGradient2831);fill-opacity:1;fill-rule:nonzero;stroke:none;stroke-width:1;marker:none;visibility:visible;display:inline;overflow:visible"/></g><path style="color:#000;fill:url(#linearGradient2780);fill-opacity:1;fill-rule:nonzero;stroke:#204a87;stroke-width:.90138447;stroke-linecap:butt;stroke-linejoin:miter;stroke-miterlimit:4;stroke-opacity:1;stroke-dasharray:none;stroke-dashoffset:0;marker:none;visibility:visible;display:inline;overflow:visible" id="rect5117" d="m 8.1281758,33.637334 -6.5474193,6.903034 1.5109807,0 0.017925,5.443556 10.3244838,-0.01793 -0.04226,-5.456153 1.283708,0.0126 -2.677203,-2.818949 0.0026,-3.485229 -2.0202173,-0.0025 0.00907,1.33751 -1.8616665,-1.915822 z"/><path style="opacity:.41237111;color:#000;fill:none;stroke:url(#linearGradient2788);stroke-width:.90138441;stroke-linecap:butt;stroke-linejoin:miter;stroke-miterlimit:4;stroke-opacity:1;stroke-dasharray:none;stroke-dashoffset:0;marker:none;visibility:visible;display:inline;overflow:visible" id="path2778" d="m 8.1437186,34.946098 -4.4653091,4.673388 0.064577,0 c 0.068393,-1.92e-4 0.1340407,0.0269 0.1824021,0.07526 0.048361,0.04837 0.075445,0.114008 0.075256,0.1824 l 0.015156,5.18642 8.5158814,-0.01516 -0.03908,-4.900355 c -1.9e-4,-0.0684 0.0058,-0.306571 0.05414,-0.354933 0.04837,-0.04837 0.0119,-0.04375 0.08029,-0.04356 l 0.0696,-0.0082 -1.548282,-1.58661 c -0.04383,-0.04746 -0.0682,-0.10969 -0.06823,-0.174298 l 0.01753,-2.894408 -0.201452,0.005 0.01753,2.056608 c 4.61e-4,0.104355 -0.06227,0.198621 -0.158698,0.238523 -0.09642,0.03991 -0.207415,0.01751 -0.280836,-0.05665 l -2.3304935,-2.383362 3.74e-5,0 -2.98e-5,5e-6 -9e-7,2.5e-5 9e-7,-3.9e-5 z"/></g></svg>