<svg xmlns="http://www.w3.org/2000/svg" xmlns:svg="http://www.w3.org/2000/svg" xmlns:xlink="http://www.w3.org/1999/xlink" id="svg3275" width="32" height="32" version="1.0"><metadata id="metadata19"/><defs id="defs3277"><radialGradient id="radialGradient2469" cx="62.625" cy="4.625" r="10.625" gradientTransform="matrix(2.1647,0,0,0.75294,-111.56,36.518)" gradientUnits="userSpaceOnUse"><stop id="stop8840" offset="0"/><stop id="stop8842" offset="1" style="stop-opacity:0"/></radialGradient><linearGradient id="linearGradient2452" x1="24.104" x2="24.104" y1="15.181" y2="34.225" gradientTransform="matrix(1.8451,0,0,1.834,-20.057,-17.214)" gradientUnits="userSpaceOnUse"><stop id="stop2266" offset="0" style="stop-color:#d7e866"/><stop id="stop2268" offset="1" style="stop-color:#8cab2a"/></linearGradient><linearGradient id="linearGradient3269" x1="24" x2="24" y1="5" y2="45" gradientUnits="userSpaceOnUse"><stop id="stop3261" offset="0" style="stop-color:#fff"/><stop id="stop3263" offset="1" style="stop-color:#fff;stop-opacity:0"/></linearGradient><radialGradient id="radialGradient5966" cx="64.808" cy="1019.362" r="61.016" fx="64.808" fy="991.862" gradientTransform="matrix(1.2269244,0,0,0.99133944,-14.523159,8.5591009)" gradientUnits="userSpaceOnUse" xlink:href="#linearGradient2499"/><linearGradient id="linearGradient2499" x1="63.397" x2="63.397" y1="-12.489" y2="5.468" gradientTransform="matrix(2.8014,0,0,2.8014,-142.25,43.835)" gradientUnits="userSpaceOnUse"><stop style="stop-color:#fff;stop-opacity:0" id="stop4875" offset="0"/><stop id="stop3899" offset=".705" style="stop-color:#fff;stop-opacity:0"/><stop style="stop-color:#fff;stop-opacity:1" id="stop4877" offset="1"/></linearGradient></defs><path style="font-size:medium;font-style:normal;font-variant:normal;font-weight:400;font-stretch:normal;text-indent:0;text-align:start;text-decoration:none;line-height:normal;letter-spacing:normal;word-spacing:normal;text-transform:none;direction:ltr;block-progression:tb;writing-mode:lr-tb;text-anchor:start;baseline-shift:baseline;color:#000;fill:#4b4b4b;fill-opacity:1;fill-rule:nonzero;stroke:none;stroke-width:3.00000023999999987;marker:none;visibility:visible;display:inline;overflow:visible;enable-background:accumulate;font-family:Sans;-inkscape-font-specification:Sans" id="path3912-38" d="m 20,6 2.666667,0 c 4,0 4,4.285714 4,4.285714 l 0,4.241072 C 26.666667,15.955357 24,18.857142 24,18.857142 l 0,1.428573 4,2.857142 L 28,26 l -7.333333,0 -7.333334,0 0,-2.857143 5.333334,-2.857142 0,-1.428573 c 0,0 -2.675454,-2.901784 -2.666667,-4.330356 l 0,-4.241072 C 16,10.285714 15.999987,6 20,6 z m -9.333333,2.8571429 2.666666,0 0,5.6696431 C 13.333333,15.955357 16,18.857142 16,18.857142 l -5.333333,2.857144 0,2.857143 L 4,24.526786 l 0,-1.428571 5.333333,-2.8125 0,-1.428573 c 0,0 -2.675454,-2.901784 -2.666666,-4.330356 l 0,-1.383929 c 0,-4.2857141 3.999988,-4.2857141 4,-4.2857141 z"/></svg>