<svg xmlns="http://www.w3.org/2000/svg" xmlns:svg="http://www.w3.org/2000/svg" xmlns:xlink="http://www.w3.org/1999/xlink" id="svg1307" width="128" height="128" version="1.0"><defs id="defs1309"><linearGradient id="linearGradient3345"><stop style="stop-color:#000;stop-opacity:1" id="stop3347" offset="0"/><stop style="stop-color:#000;stop-opacity:0" id="stop3349" offset="1"/></linearGradient><linearGradient id="linearGradient3313"><stop style="stop-color:#fff;stop-opacity:1" id="stop3315" offset="0"/><stop style="stop-color:#fff;stop-opacity:0" id="stop3317" offset="1"/></linearGradient><linearGradient id="linearGradient3283"><stop style="stop-color:#fff;stop-opacity:1" id="stop3285" offset="0"/><stop style="stop-color:#fff;stop-opacity:0" id="stop3287" offset="1"/></linearGradient><linearGradient id="linearGradient3263"><stop style="stop-color:#fff;stop-opacity:1" id="stop3265" offset="0"/><stop style="stop-color:#fff;stop-opacity:0" id="stop3267" offset="1"/></linearGradient><linearGradient id="linearGradient3291"><stop style="stop-color:#000;stop-opacity:1" id="stop3293" offset="0"/><stop style="stop-color:#000;stop-opacity:0" id="stop3295" offset="1"/></linearGradient><radialGradient id="radialGradient3297" cx="63.912" cy="115.709" r="63.912" fx="63.912" fy="115.709" gradientTransform="matrix(1,0,0,0.197802,0,92.82166)" gradientUnits="userSpaceOnUse" xlink:href="#linearGradient3291"/><linearGradient id="linearGradient7281"><stop id="stop7283" offset="0" style="stop-color:#fff;stop-opacity:1"/><stop id="stop7285" offset="1" style="stop-color:#fff;stop-opacity:0"/></linearGradient><linearGradient id="linearGradient2250" x1="81.625" x2="73.938" y1="-4.648" y2="133.64" gradientUnits="userSpaceOnUse" xlink:href="#linearGradient3263"/><linearGradient id="linearGradient2252" x1="73.783" x2="59.462" y1="-17.919" y2="151.132" gradientUnits="userSpaceOnUse" xlink:href="#linearGradient3263"/><linearGradient id="linearGradient2254" x1="82.95" x2="89.018" y1="-13.696" y2="108.306" gradientUnits="userSpaceOnUse" xlink:href="#linearGradient3263"/><linearGradient id="linearGradient2256" x1="74.92" x2="69.163" y1="-.914" y2="17.977" gradientTransform="translate(-0.319889,0.213259)" gradientUnits="userSpaceOnUse" xlink:href="#linearGradient3283"/><linearGradient id="linearGradient2258" x1="97.004" x2="95.084" y1="81.456" y2="86.347" gradientUnits="userSpaceOnUse" xlink:href="#linearGradient3313"/><radialGradient id="radialGradient2260" cx="71.833" cy="63.797" r="19.781" fx="71.833" fy="63.797" gradientTransform="matrix(0.07235078,-0.180927,0.727882,0.291067,44.18976,78.77205)" gradientUnits="userSpaceOnUse" xlink:href="#linearGradient3313"/><linearGradient id="linearGradient2262" x1="97.004" x2="95.084" y1="81.456" y2="86.347" gradientUnits="userSpaceOnUse" xlink:href="#linearGradient3313"/><radialGradient id="radialGradient2264" cx="71.833" cy="63.797" r="19.781" fx="71.833" fy="63.797" gradientTransform="matrix(0.07235078,-0.180927,0.727882,0.291067,44.18976,78.77205)" gradientUnits="userSpaceOnUse" xlink:href="#linearGradient3313"/><linearGradient id="linearGradient2266" x1="54.48" x2="8.195" y1="72.976" y2="94.579" gradientUnits="userSpaceOnUse" xlink:href="#linearGradient3345"/><radialGradient id="radialGradient2268" cx="70.34" cy="113.468" r="61.196" fx="70.34" fy="113.468" gradientTransform="matrix(1,0,0,0.978678,0,1.310253)" gradientUnits="userSpaceOnUse" xlink:href="#linearGradient7281"/><radialGradient id="radialGradient3799" cx="70.34" cy="113.468" r="61.196" fx="70.34" fy="113.468" gradientTransform="matrix(0.80403243,0,0,0.77135027,34.910156,16.277637)" gradientUnits="userSpaceOnUse" xlink:href="#linearGradient7281"/><linearGradient id="linearGradient3802" x1="54.48" x2="8.195" y1="72.976" y2="94.579" gradientTransform="matrix(0.80403243,0,0,0.78815532,36.041469,16.214651)" gradientUnits="userSpaceOnUse" xlink:href="#linearGradient3345"/><radialGradient id="radialGradient3808" cx="71.833" cy="63.797" r="19.781" fx="71.833" fy="63.797" gradientTransform="matrix(0.05817237,-0.14259858,0.58524073,0.229406,47.652277,77.652796)" gradientUnits="userSpaceOnUse" xlink:href="#linearGradient3313"/><linearGradient id="linearGradient3811" x1="97.004" x2="95.084" y1="81.456" y2="86.347" gradientTransform="matrix(0.80403243,0,0,0.78815532,12.122277,15.568186)" gradientUnits="userSpaceOnUse" xlink:href="#linearGradient3313"/><linearGradient id="linearGradient3814" x1="74.92" x2="69.163" y1="-.914" y2="17.977" gradientTransform="matrix(0.80403243,0,0,0.78815532,11.865076,15.736267)" gradientUnits="userSpaceOnUse" xlink:href="#linearGradient3283"/><linearGradient id="linearGradient3818" x1="82.95" x2="89.018" y1="-13.696" y2="108.306" gradientTransform="matrix(0.80403243,0,0,0.78815532,12.122277,15.568186)" gradientUnits="userSpaceOnUse" xlink:href="#linearGradient3263"/><linearGradient id="linearGradient3821" x1="73.783" x2="59.462" y1="-17.919" y2="151.132" gradientTransform="matrix(0.80403243,0,0,0.78815532,46.546519,15.083338)" gradientUnits="userSpaceOnUse" xlink:href="#linearGradient3263"/><linearGradient id="linearGradient3824" x1="81.625" x2="73.938" y1="-4.648" y2="133.64" gradientTransform="matrix(0.80403243,0,0,0.78815532,103.56008,16.21439)" gradientUnits="userSpaceOnUse" xlink:href="#linearGradient3263"/></defs><metadata id="metadata1312"/><g id="layer1"><path id="path2276" d="M 50.892799,3.2812959 L 50.892799,0.48658747 L 50.892799,3.2812959 z" style="fill:#fff;fill-opacity:.75688076;fill-rule:nonzero;stroke:none;stroke-width:.5;stroke-linecap:round;stroke-linejoin:round;stroke-miterlimit:4;stroke-dasharray:none;stroke-dashoffset:4;stroke-opacity:1"/><path style="fill:#4b4b4b;fill-opacity:1;stroke:none;stroke-opacity:1" id="path3220" d="m 62.739498,16 c -6.51483,0.391023 -12.884045,3.028253 -16.281514,8.219538 -0.763763,1.167011 -0.880862,1.964089 -1.155467,3.161362 -0.274588,1.197272 -0.492467,2.645802 -0.63025,4.215147 -0.268224,3.055064 -0.315486,6.578149 -0.105035,10.327112 0.42123,7.504109 1.626985,14.931619 3.886554,19.389681 2.257002,4.453004 2.180281,10.995183 0.840329,13.277718 -1.661744,2.830684 -5.450176,5.301961 -11.974786,7.165748 -7.279156,2.079329 -13.04644,4.100149 -17.226893,7.798026 C 16.39145,92.828089 14,96.613029 14,101.46213 l 0,7.16574 0,3.37213 3.361347,0 93.277303,0 3.36135,0 0,-3.37213 0,-7.16574 c 1e-5,-4.849101 -2.39145,-8.634041 -6.09243,-11.907798 C 103.77354,85.897524 98.006624,83.743621 90.680675,81.650928 84.10774,79.773334 80.346458,77.385186 78.705882,74.590558 77.365929,72.308027 77.289216,65.765844 79.546217,61.31284 81.805795,56.854775 83.011542,49.427268 83.432773,41.923159 83.643215,38.174195 83.595947,34.651103 83.32773,31.596047 83.189955,30.026702 82.972084,28.578172 82.69748,27.3809 82.422883,26.183627 82.305774,25.386549 81.542021,24.219538 78.161372,19.053978 71.773964,16 65.050421,16 l -2.100846,0 -0.105035,0 -0.105042,0 z"/></g></svg>