<svg xmlns="http://www.w3.org/2000/svg" xmlns:svg="http://www.w3.org/2000/svg" xmlns:xlink="http://www.w3.org/1999/xlink" id="svg3082" width="48" height="48" version="1.1"><metadata id="metadata53"/><defs id="defs3084"><linearGradient id="linearGradient5060"><stop id="stop5062" offset="0"/><stop id="stop5064" offset="1" style="stop-opacity:0"/></linearGradient><linearGradient id="linearGradient6388"><stop id="stop6390" offset="0" style="stop-color:#a00"/><stop id="stop6392" offset="1" style="stop-color:#a00;stop-opacity:0"/></linearGradient><linearGradient id="linearGradient4168"><stop id="stop4170" offset="0" style="stop-color:#f8cd70"/><stop id="stop4172" offset="1" style="stop-color:#cc9110"/></linearGradient><linearGradient id="linearGradient5527" x1="6" x2="14.839" y1="39" y2="29.808" gradientUnits="userSpaceOnUse" xlink:href="#linearGradient6388"/><linearGradient id="linearGradient5530" x1="42" x2="32.984" y1="39" y2="30.161" gradientUnits="userSpaceOnUse" xlink:href="#linearGradient6388"/><linearGradient id="linearGradient5533" x1="6" x2="15.104" y1="14" y2="23.281" gradientUnits="userSpaceOnUse" xlink:href="#linearGradient6388"/><linearGradient id="linearGradient5536" x1="42" x2="33.25" y1="14" y2="22.839" gradientUnits="userSpaceOnUse" xlink:href="#linearGradient6388"/><radialGradient id="radialGradient5539" cx="40.128" cy="9.966" r="1.061" gradientTransform="matrix(1.8725,2.2105e-6,-2.2597e-6,1.9142,-42.642,-9.5775)" gradientUnits="userSpaceOnUse" xlink:href="#linearGradient4168"/><radialGradient id="radialGradient5542" cx="40.128" cy="9.966" r="1.061" gradientTransform="matrix(1.8725,2.2597e-6,-2.2597e-6,1.8725,-38.642,-9.1622)" gradientUnits="userSpaceOnUse" xlink:href="#linearGradient4168"/><radialGradient id="radialGradient5545" cx="40.128" cy="9.966" r="1.061" gradientTransform="matrix(1.8725,-1.5978e-7,1.5267e-7,1.7892,-34.642,-8.3316)" gradientUnits="userSpaceOnUse" xlink:href="#linearGradient4168"/><linearGradient id="linearGradient5548" x1="24" x2="24" y1="13" y2="40" gradientUnits="userSpaceOnUse"><stop id="stop6459" offset="0" style="stop-color:#fff;stop-opacity:.94118"/><stop id="stop6461" offset="1" style="stop-color:#fff;stop-opacity:.70588"/></linearGradient><linearGradient id="linearGradient5551" x1="16.034" x2="16.075" y1="9.073" y2="15.044" gradientTransform="matrix(1.2581,0,0,1.1724,-7.4515,-4.6378)" gradientUnits="userSpaceOnUse"><stop id="stop3692" offset="0" style="stop-color:#fff"/><stop id="stop3694" offset="1" style="stop-color:#fff;stop-opacity:.46875"/></linearGradient><linearGradient id="linearGradient5554" x1="21.866" x2="21.78" y1="8.576" y2="39.924" gradientTransform="matrix(1.2424,0,0,1.1803,-7.0605,-5.1228)" gradientUnits="userSpaceOnUse"><stop id="stop2783" offset="0" style="stop-color:#505050"/><stop id="stop6301" offset=".132" style="stop-color:#6e6e6e"/><stop id="stop2785" offset="1" style="stop-color:#8c8c8c"/></linearGradient><linearGradient id="linearGradient6658" x1="302.86" x2="302.86" y1="366.65" y2="609.51" gradientTransform="matrix(2.7744,0,0,1.9697,-1892.2,-872.89)" gradientUnits="userSpaceOnUse"><stop id="stop5050" offset="0" style="stop-opacity:0"/><stop id="stop5056" offset=".5"/><stop id="stop5052" offset="1" style="stop-opacity:0"/></linearGradient><radialGradient id="radialGradient6660" cx="605.71" cy="486.65" r="117.14" gradientTransform="matrix(2.7744,0,0,1.9697,-1891.6,-872.89)" gradientUnits="userSpaceOnUse" xlink:href="#linearGradient5060"/><radialGradient id="radialGradient6662" cx="605.71" cy="486.65" r="117.14" gradientTransform="matrix(-2.7744,0,0,1.9697,112.76,-872.89)" gradientUnits="userSpaceOnUse" xlink:href="#linearGradient5060"/></defs><path style="font-size:medium;font-style:normal;font-variant:normal;font-weight:400;font-stretch:normal;text-indent:0;text-align:start;text-decoration:none;line-height:normal;letter-spacing:normal;word-spacing:normal;text-transform:none;direction:ltr;block-progression:tb;writing-mode:lr-tb;text-anchor:start;baseline-shift:baseline;opacity:1;color:#000;fill:#4b4b4b;fill-opacity:1;stroke:none;stroke-width:6;marker:none;visibility:visible;display:inline;overflow:visible;enable-background:accumulate;font-family:Sans;-inkscape-font-specification:Sans" id="path27" d="M 6.78125 23.84375 A 3.0052039 3.0052039 0 0 0 4 26.84375 L 4 40.75 L 4 41 A 3.0052038 3.0052038 0 0 0 4 41.03125 A 3.0003 3.0003 0 0 0 4 41.21875 A 3.0052038 3.0052038 0 0 0 4.03125 41.46875 A 3.0003 3.0003 0 0 0 4.03125 41.53125 A 3.0052038 3.0052038 0 0 0 4.0625 41.625 A 3.0003 3.0003 0 0 0 4.125 41.8125 A 3.0052038 3.0052038 0 0 0 4.15625 41.9375 A 3.0003 3.0003 0 0 0 4.21875 42.09375 A 3.0052038 3.0052038 0 0 0 4.34375 42.375 A 3.0052038 3.0052038 0 0 0 4.4375 42.59375 A 3.0003 3.0003 0 0 0 4.5 42.65625 A 3.0052038 3.0052038 0 0 0 4.53125 42.71875 A 3.0003 3.0003 0 0 0 4.65625 42.875 A 3.0052038 3.0052038 0 0 0 4.71875 42.96875 A 3.0003 3.0003 0 0 0 4.84375 43.09375 A 3.0052038 3.0052038 0 0 0 4.9375 43.1875 A 3.0003 3.0003 0 0 0 5.3125 43.46875 A 3.0052038 3.0052038 0 0 0 5.5625 43.625 A 3.0052038 3.0052038 0 0 0 5.6875 43.6875 A 3.0003 3.0003 0 0 0 5.84375 43.75 A 3.0052038 3.0052038 0 0 0 5.9375 43.8125 A 3.0003 3.0003 0 0 0 6.40625 43.9375 A 3.0052038 3.0052038 0 0 0 6.53125 43.96875 A 3.0003 3.0003 0 0 0 6.71875 44 A 3.0052038 3.0052038 0 0 0 6.84375 44 A 3.0003 3.0003 0 0 0 7 44 A 3.0052038 3.0052038 0 0 0 7.125 44 L 21.15625 44 A 3.0003 3.0003 0 0 0 23.25 43.1875 A 3.0003 3.0003 0 0 0 21.15625 38 L 14.25 38 L 20.125 32.125 A 3.0003 3.0003 0 0 0 17.9375 26.96875 A 3.0003 3.0003 0 0 0 15.875 27.875 L 10 33.75 L 10 26.84375 A 3.0052039 3.0052039 0 0 0 6.78125 23.84375 z"/><path style="font-size:medium;font-style:normal;font-variant:normal;font-weight:400;font-stretch:normal;text-indent:0;text-align:start;text-decoration:none;line-height:normal;letter-spacing:normal;word-spacing:normal;text-transform:none;direction:ltr;block-progression:tb;writing-mode:lr-tb;text-anchor:start;baseline-shift:baseline;opacity:1;color:#000;fill:#4b4b4b;fill-opacity:1;stroke:none;stroke-width:6;marker:none;visibility:visible;display:inline;overflow:visible;enable-background:accumulate;font-family:Sans;-inkscape-font-specification:Sans" id="path27-6" d="M 41.24031,23.998487 A 2.9819077,2.9807802 0 0 0 44,21.022869 L 44,7.2296418 44,6.9816736 a 2.9819076,2.9807801 0 0 0 0,-0.030996 2.9770419,2.9759162 0 0 0 0,-0.1859762 2.9819076,2.9807801 0 0 0 -0.03101,-0.2479682 2.9770419,2.9759162 0 0 0 0,-0.061992 A 2.9819076,2.9807801 0 0 0 43.93798,6.3617531 2.9770419,2.9759162 0 0 0 43.87596,6.1757769 2.9819076,2.9807801 0 0 0 43.84495,6.0517928 2.9770419,2.9759162 0 0 0 43.78294,5.8968127 2.9819076,2.9807801 0 0 0 43.658909,5.6178484 2.9819076,2.9807801 0 0 0 43.565889,5.4008762 2.9770419,2.9759162 0 0 0 43.503869,5.3388842 2.9819076,2.9807801 0 0 0 43.472859,5.2768921 2.9770419,2.9759162 0 0 0 43.348828,5.121912 2.9819076,2.9807801 0 0 0 43.286808,5.0289239 2.9770419,2.9759162 0 0 0 43.162777,4.9049398 2.9819076,2.9807801 0 0 0 43.069757,4.8119517 2.9770419,2.9759162 0 0 0 42.697664,4.5329875 2.9819076,2.9807801 0 0 0 42.449602,4.3780073 2.9819076,2.9807801 0 0 0 42.325571,4.3160153 2.9770419,2.9759162 0 0 0 42.170533,4.2540232 2.9819076,2.9807801 0 0 0 42.077513,4.1920312 2.9770419,2.9759162 0 0 0 41.612397,4.0680471 2.9819076,2.9807801 0 0 0 41.488366,4.037051 2.9770419,2.9759162 0 0 0 41.30232,4.006055 a 2.9819076,2.9807801 0 0 0 -0.124031,0 2.9770419,2.9759162 0 0 0 -0.155039,0 2.9819076,2.9807801 0 0 0 -0.124031,0 l -13.922481,0 a 2.9770419,2.9759162 0 0 0 -2.077519,0.8058967 2.9770419,2.9759162 0 0 0 2.077519,5.1453355 l 6.852713,0 L 28,15.78454 A 2.9770419,2.9759162 0 0 0 30.170543,20.898885 2.9770419,2.9759162 0 0 0 32.217054,20 l 5.829458,-5.827253 0,6.850122 a 2.9819077,2.9807802 0 0 0 3.193798,2.975618 z"/></svg>